# xmcd
#
# Track frame offsets:
#	150
#	10689
#	23855
#	34652
#	47892
#	58017
#	70291
#	81114
#	91415
#	103062
#	114810
#	127286
#	139534
#	150456
#	161896
#	172237
#
# Disc length: 2455 seconds
#
# Revision: 1
# Processed by: cddbd v1.5.2PL0 Copyright (c) Steve Scherf et al.
# Submitted via: audiograbber 1.83.01
#
DISCID=d5099510
DTITLE=Petula Clark - Eight Classic Albums  [CD1)
DYEAR=2013
DGENRE=Oldies
TTITLE0=Someday
TTITLE1=A Long Way To Go
TTITLE2=Little Johny Rainbow
TTITLE3=Majorca
TTITLE4=Smile
TTITLE5=Fascinating Rhythm
TTITLE6=Helpless
TTITLE7=The Little Shoemaker
TTITLE8=A Million Stars Above
TTITLE9=Suddenly There Is A Valley 
TTITLE10=Fortune Teller
TTITLE11=Another Door Opens
TTITLE12=Memories Are Made Of This
TTITLE13=Band Of Gold
TTITLE14=To You My Love
TTITLE15=With Your Love
EXTD=
EXTT0=
EXTT1=
EXTT2=
EXTT3=
EXTT4=
EXTT5=
EXTT6=
EXTT7=
EXTT8=
EXTT9=
EXTT10=
EXTT11=
EXTT12=
EXTT13=
EXTT14=
EXTT15=
PLAYORDER=
